<svg width="51" height="51" viewBox="0 0 51 51" fill="none" xmlns="http://www.w3.org/2000/svg">
<g clip-path="url(#clip0_12_7)">
<path d="M19.1844 42.1529C19.8319 42.2893 20.2462 42.925 20.1096 43.5723C19.9906 44.1364 19.4928 44.5236 18.9384 44.5236C18.8565 44.5236 18.7735 44.5152 18.6901 44.4977C11.7024 43.0245 6.23546 37.5575 4.76262 30.5697C4.62617 29.9222 5.04044 29.2867 5.68794 29.1503C6.3349 29.014 6.97081 29.4281 7.10739 30.0755C8.38441 36.1348 13.1251 40.8755 19.1844 42.1529ZM23.6321 26.828C23.6321 26.1663 23.0957 25.6299 22.434 25.6299H22.4299C21.7681 25.6299 21.2339 26.1663 21.2339 26.828C21.2339 27.4898 21.7722 28.0261 22.434 28.0261C23.0957 28.0261 23.6321 27.4896 23.6321 26.828ZM51 2.9381V17.528C51 18.1897 50.4637 18.7261 49.8019 18.7261C49.1402 18.7261 48.6038 18.1897 48.6038 17.528V16.0705H30.0265L25.9646 23.1061C26.6725 23.7784 27.1897 24.6502 27.4248 25.6301H33.1891V19.9239C33.1891 19.2622 33.7255 18.7258 34.3872 18.7258C35.0489 18.7258 35.5853 19.2622 35.5853 19.9239V26.7926C35.5855 26.8045 35.5858 26.8163 35.5858 26.8283C35.5858 30.7629 33.8494 34.2995 31.1025 36.712C31.0745 36.7416 31.0447 36.7701 31.0133 36.7972C29.929 37.7314 28.7077 38.4747 27.4017 39.0074C25.8841 39.6289 24.2254 39.9748 22.4882 39.982C22.4855 39.9824 22.4831 39.982 22.4807 39.982C22.4775 39.982 22.4749 39.982 22.4718 39.9821C22.4685 39.9822 22.4654 39.9822 22.4623 39.9821C22.459 39.982 22.4556 39.982 22.4525 39.9821C22.4492 39.9821 22.4456 39.9821 22.4424 39.9821C22.4386 39.9821 22.4319 39.9812 22.432 39.9821C20.0665 39.9821 17.844 39.354 15.9238 38.2563C15.9009 38.2449 15.878 38.2326 15.8555 38.2197C15.8317 38.206 15.8085 38.1915 15.786 38.1765C11.8953 35.8891 9.27817 31.6585 9.27817 26.8284C9.27817 21.9983 11.8954 17.7678 15.7861 15.4804C15.8086 15.4653 15.8318 15.4507 15.8556 15.4371C15.8781 15.4241 15.9009 15.4119 15.9239 15.4005C17.8444 14.3025 20.0662 13.6747 22.4325 13.6747C22.5282 13.6747 22.6214 13.6859 22.7106 13.7072C22.7999 13.6859 22.893 13.6747 22.9887 13.6747H29.3141C29.3287 13.6743 29.3434 13.6743 29.3579 13.6747H48.6041V6.79204H22.9884C22.893 6.79204 22.8001 6.78086 22.7111 6.75983C22.6222 6.78086 22.5293 6.79204 22.4339 6.79204C11.3843 6.79204 2.39615 15.7802 2.39615 26.828C2.39615 37.8759 11.3843 46.864 22.4323 46.864C30.1448 46.864 37.259 42.3552 40.5566 35.3774C40.612 35.2605 40.6836 35.1566 40.7678 35.0673C41.8965 32.5753 42.5296 29.8132 42.5409 26.907C42.5406 26.897 42.5405 26.8871 42.5405 26.877V19.9238C42.5405 19.262 43.0769 18.7257 43.7386 18.7257C44.4003 18.7257 44.9367 19.262 44.9367 19.9238V26.7925C44.9369 26.8043 44.9372 26.8162 44.9372 26.8281C44.9372 39.1972 34.8742 49.2603 22.5049 49.2603C22.4807 49.2603 22.4566 49.2603 22.4323 49.2603C10.063 49.26 0 39.1971 0 26.828C0 14.4589 10.063 4.39589 22.4323 4.39589C22.528 4.39589 22.6212 4.40707 22.7103 4.42837C22.7997 4.40707 22.8927 4.39589 22.9884 4.39589H48.6038V2.9381C48.6038 2.27636 49.1402 1.74002 49.8019 1.74002C50.4637 1.74002 51 2.27636 51 2.9381ZM11.7405 25.6299H17.4393C17.6746 24.6499 18.1916 23.7782 18.8998 23.1059L16.0514 18.172C13.7009 19.9093 12.0799 22.579 11.7405 25.6299ZM16.0512 35.484L18.8997 30.5502C18.1916 29.8778 17.6744 29.0061 17.4392 28.0261H11.7404C12.0799 31.0775 13.7007 33.7469 16.0512 35.484ZM26.7399 36.6853L23.8911 31.7508C23.4285 31.8882 22.9389 31.9619 22.4324 31.9619C21.9257 31.9619 21.4363 31.8882 20.9735 31.7508L18.1246 36.6854C19.4443 37.2642 20.9015 37.5857 22.4324 37.5857C22.4351 37.5857 22.4378 37.5857 22.4408 37.5857H22.441C22.4445 37.5857 22.4473 37.5857 22.4505 37.5857C22.4533 37.5857 22.4569 37.5857 22.4593 37.5857C22.4623 37.5857 22.4651 37.5855 22.4683 37.5857C22.4709 37.5854 22.4741 37.5855 22.4767 37.5855C22.4778 37.5855 22.4781 37.5855 22.4792 37.5855C23.8437 37.5796 25.1836 37.3144 26.4309 36.815C26.5349 36.7732 26.6375 36.73 26.7399 36.6853ZM22.4323 29.5656C23.9417 29.5656 25.1697 28.3375 25.1697 26.828C25.1697 25.3186 23.9417 24.0904 22.4323 24.0904C20.9225 24.0904 19.6944 25.3186 19.6944 26.828C19.6944 28.3375 20.9225 29.5656 22.4323 29.5656ZM25.9646 30.55L28.8131 35.4839C31.1632 33.7468 32.784 31.0771 33.1234 28.0262H27.4248C27.1897 29.006 26.6725 29.8778 25.9646 30.55ZM27.2596 16.0704H22.9884C22.893 16.0704 22.8001 16.0592 22.7111 16.0381C22.6222 16.0592 22.5293 16.0704 22.4339 16.0704C20.9023 16.0704 19.4445 16.3918 18.1245 16.9709L20.9733 21.9053C21.436 21.7679 21.9255 21.6941 22.4321 21.6941C22.9386 21.6941 23.4283 21.7679 23.8908 21.9053L27.2596 16.0704Z" fill="white"/>
</g>
<defs>
<clipPath id="clip0_12_7">
<rect width="51" height="51" fill="white"/>
</clipPath>
</defs>
</svg>
